<?xml version="1.0" standalone="no"?>
<!DOCTYPE svg PUBLIC "-//W3C//DTD SVG 20010904//EN"
 "http://www.w3.org/TR/2001/REC-SVG-20010904/DTD/svg10.dtd">
<svg version="1.0" xmlns="http://www.w3.org/2000/svg"
 width="906.000000pt" height="275.000000pt" viewBox="0 0 906.000000 275.000000"
 preserveAspectRatio="xMidYMid meet">

<g transform="translate(0.000000,275.000000) scale(0.100000,-0.100000)"
fill="#000000" stroke="none">
<path d="M300 1340 l0 -1130 28 0 c16 0 75 7 133 15 57 8 123 17 147 21 l42 5
0 610 c0 335 3 609 8 609 4 0 97 -259 207 -576 110 -316 202 -579 205 -583 3
-4 91 2 195 13 l190 21 3 1063 2 1062 -175 0 -175 0 0 -635 c0 -349 -3 -635
-7 -635 -9 0 -6 -7 -274 732 l-194 538 -167 0 -168 0 0 -1130z"/>
<path d="M1810 1425 c0 -575 4 -1045 9 -1045 4 0 111 9 237 19 126 11 342 27
479 36 138 10 251 18 253 20 1 1 1 78 0 171 l-3 169 -260 -17 c-143 -9 -284
-19 -312 -21 l-53 -6 0 270 0 269 240 0 240 0 0 176 0 176 -237 -3 -238 -4 -3
243 -2 242 315 0 315 0 0 175 0 175 -490 0 -490 0 0 -1045z"/>
<path d="M3030 2295 l0 -175 185 0 185 0 0 -822 0 -821 107 6 c58 4 137 7 175
7 l68 0 0 815 0 815 190 0 190 0 0 175 0 175 -550 0 -550 0 0 -175z"/>
<path d="M4360 1485 l0 -985 175 0 175 0 2 402 3 403 243 3 242 2 -2 173 -3
172 -243 3 -242 2 2 228 3 227 318 3 317 2 0 175 0 175 -495 0 -495 0 0 -985z"/>
<path d="M5590 1475 l0 -995 78 0 c67 0 295 -11 760 -36 l122 -7 0 170 0 170
-67 6 c-38 4 -175 12 -305 18 l-238 12 0 829 0 828 -175 0 -175 0 0 -995z"/>
<path d="M6855 2458 c-3 -7 -4 -470 -3 -1028 l3 -1015 120 -11 c66 -7 144 -12
173 -13 l52 -1 0 1040 0 1040 -170 0 c-127 0 -172 -3 -175 -12z"/>
<path d="M7520 2464 c0 -3 92 -243 205 -533 l206 -528 -225 -519 c-124 -285
-223 -520 -222 -522 2 -1 64 -9 137 -17 74 -8 155 -17 180 -20 l46 -5 128 297
c71 164 130 300 132 303 7 9 20 -21 143 -338 68 -174 124 -319 126 -321 3 -3
227 -35 337 -47 31 -4 57 -4 57 0 0 4 -102 269 -226 589 -125 320 -227 587
-227 592 0 6 102 245 226 533 125 287 227 527 227 532 0 6 -74 10 -189 10
l-189 0 -127 -295 c-71 -162 -131 -295 -134 -295 -4 0 -58 133 -121 295 l-114
295 -188 0 c-104 0 -188 -3 -188 -6z"/>
</g>
</svg>
